<?xml version="1.0" encoding="utf-8"?>
<!-- Generator: Adobe Illustrator 17.0.0, SVG Export Plug-In . SVG Version: 6.00 Build 0)  -->
<!DOCTYPE svg PUBLIC "-//W3C//DTD SVG 1.1//EN" "http://www.w3.org/Graphics/SVG/1.1/DTD/svg11.dtd">
<svg version="1.1" id="Layer_1" xmlns="http://www.w3.org/2000/svg" xmlns:xlink="http://www.w3.org/1999/xlink" x="0px" y="0px"
	 width="25.92px" height="22px" viewBox="0 0 25.92 22" enable-background="new 0 0 25.92 22" xml:space="preserve">
<g>
	<g>
		<defs>
			<rect id="SVGID_1_" x="0" width="25.92" height="22"/>
		</defs>
		<clipPath id="SVGID_2_">
			<use xlink:href="#SVGID_1_"  overflow="visible"/>
		</clipPath>
		<path clip-path="url(#SVGID_2_)" fill="#20ff02" d="M25.164,5.289c0.297-0.352,0.441-0.809,0.398-1.266c-0.043-0.461-0.269-0.883-0.629-1.176
			l-3.047-2.465c-0.734-0.597-1.816-0.484-2.41,0.254l-9.336,11.535l-4.43-3.734C4.867,7.726,3.625,7.781,2.844,8.558L0.5,10.898
			c-0.336,0.34-0.516,0.801-0.5,1.277c0.02,0.477,0.234,0.922,0.594,1.235l8.886,7.651c0.348,0.297,0.797,0.445,1.25,0.41
			c0.454-0.035,0.879-0.25,1.172-0.597L25.164,5.289z M25.164,5.289"/>
	</g>
</g>
</svg>
