<?xml version="1.0" encoding="utf-8"?>
<!-- Generator: Adobe Illustrator 17.0.0, SVG Export Plug-In . SVG Version: 6.00 Build 0)  -->
<!DOCTYPE svg PUBLIC "-//W3C//DTD SVG 1.1//EN" "http://www.w3.org/Graphics/SVG/1.1/DTD/svg11.dtd">
<svg version="1.1" id="Layer_1" xmlns="http://www.w3.org/2000/svg" xmlns:xlink="http://www.w3.org/1999/xlink" x="0px" y="0px"
	 width="552px" height="517.903px" viewBox="0 0 552 517.903" enable-background="new 0 0 552 517.903" xml:space="preserve">
<path fill="#FFFFFF" d="M462,0H90C40.294,0,0,40.294,0,90v242c0,49.706,40.294,90,90,90h128.116
	c5.8,4.399,8.619,12.586,3.884,27.299c-14,43.5-24.107,70.5-17.804,68.5c5.057-1.604,103.527-64.329,146.427-95.799H462
	c49.706,0,90-40.294,90-90V90C552,40.294,511.706,0,462,0z"/>
<circle fill="#333333" cx="156" cy="213.75" r="37.691"/>
<circle fill="#333333" cx="281.333" cy="213.75" r="37.691"/>
<circle fill="#333333" cx="406.666" cy="213.75" r="37.691"/>
</svg>
