<?xml version="1.0" encoding="utf-8"?>
<!-- Generator: Adobe Illustrator 17.0.0, SVG Export Plug-In . SVG Version: 6.00 Build 0)  -->
<!DOCTYPE svg PUBLIC "-//W3C//DTD SVG 1.1//EN" "http://www.w3.org/Graphics/SVG/1.1/DTD/svg11.dtd">
<svg version="1.1" id="Layer_1" xmlns="http://www.w3.org/2000/svg" xmlns:xlink="http://www.w3.org/1999/xlink" x="0px" y="0px"
	 width="20.335px" height="19.945px" viewBox="0 0 20.335 19.945" enable-background="new 0 0 20.335 19.945" xml:space="preserve">
<path fill="#fff" d="M15.484,13.309c-0.106-0.035-0.762-0.711-0.352-1.981h-0.004c1.07-1.121,1.988-2.927,1.988-4.699
	c0-2.732-1.886-4.166-3.964-4.166c-2.079,0-3.883,1.434-3.883,4.166c0,1.781,0.84,3.594,1.918,4.711
	c0.418,1.121-0.332,1.91-0.489,1.969c-2.175,0.797-4.73,2.254-4.73,3.691v0.539c0,1.961,3.742,2.406,7.203,2.406
	c3.469,0,7.164-0.445,7.164-2.406V17C20.335,15.519,17.769,14.074,15.484,13.309L15.484,13.309z M15.484,13.309"/>
<path fill="#fff" d="M4.563,9.707C2.414,10.43,0.004,11.789,0,13.18v0.508c0,1.516,2.363,2.07,5.016,2.215c0.754-1.957,3.387-3.242,5.074-3.879
	c-1.058-1.269-2.07-3.238-2.07-5.398c0-2.021,0.805-3.521,1.969-4.485C9.434,0.733,8.195,0,6.758,0C4.801,0,3.195,1.342,3.195,3.91
	c0,1.668,0.695,3.366,1.703,4.418H4.895C5.277,9.522,4.66,9.674,4.563,9.707L4.563,9.707z M4.563,9.707"/>
</svg>
