<?xml version="1.0" encoding="utf-8"?>
<!-- Generator: Adobe Illustrator 17.0.0, SVG Export Plug-In . SVG Version: 6.00 Build 0)  -->
<!DOCTYPE svg PUBLIC "-//W3C//DTD SVG 1.1//EN" "http://www.w3.org/Graphics/SVG/1.1/DTD/svg11.dtd">
<svg version="1.1" id="Слой_1" xmlns="http://www.w3.org/2000/svg" xmlns:xlink="http://www.w3.org/1999/xlink" x="0px" y="0px"
	 width="353.074px" height="324.789px" viewBox="0 0 353.074 324.789" enable-background="new 0 0 353.074 324.789"
	 xml:space="preserve">
<g>
	<path fill="#FFFFFF" d="M251.211,0c-29.5,0-56.07,13.137-74.672,34.117C157.938,13.137,131.367,0,101.863,0
		C45.605,0,0,47.738,0,106.633c0,15.824,2.672,31.051,7.348,45.59c0,0,4.242,13.121,7.996,20.344
		c42.937,92.339,161.195,152.222,161.195,152.222s118.254-59.883,161.191-152.222c0,0,5.54-12.305,7.997-20.344
		c4.468-14.61,7.347-29.766,7.347-45.59C353.074,47.738,307.469,0,251.211,0L251.211,0z M251.211,0"/>
</g>
</svg>
