<?xml version="1.0" encoding="utf-8"?>
<!-- Generator: Adobe Illustrator 17.0.0, SVG Export Plug-In . SVG Version: 6.00 Build 0)  -->
<!DOCTYPE svg PUBLIC "-//W3C//DTD SVG 1.1//EN" "http://www.w3.org/Graphics/SVG/1.1/DTD/svg11.dtd">
<svg version="1.1" id="Layer_1" xmlns="http://www.w3.org/2000/svg" xmlns:xlink="http://www.w3.org/1999/xlink" x="0px" y="0px"
	 width="57.25px" height="63.63px" viewBox="0 0 57.25 63.63" enable-background="new 0 0 57.25 63.63" xml:space="preserve">
<path fill="#A32330" d="M33.667,21.63c0,1.474-1.426,2.668-3.185,2.668h-3.716c-1.758,0-3.184-1.194-3.184-2.668V2.668
	C23.583,1.193,25.009,0,26.767,0h3.716c1.759,0,3.185,1.193,3.185,2.668V21.63z"/>
<path fill="#FFFFFF" d="M39.479,8.542v7.618c6.511,3.758,10.896,10.786,10.896,18.845c0,12.013-9.737,21.75-21.75,21.75
	c-12.012,0-21.75-9.737-21.75-21.75c0-8.059,4.384-15.087,10.896-18.844V8.542C7.35,12.819,0,23.043,0,35.005
	C0,50.814,12.816,63.63,28.625,63.63c15.809,0,28.625-12.815,28.625-28.625C57.25,23.043,49.899,12.819,39.479,8.542z"/>
</svg>
