<?xml version="1.0" encoding="utf-8"?>
<!-- Generator: Adobe Illustrator 17.0.0, SVG Export Plug-In . SVG Version: 6.00 Build 0)  -->
<!DOCTYPE svg PUBLIC "-//W3C//DTD SVG 1.1//EN" "http://www.w3.org/Graphics/SVG/1.1/DTD/svg11.dtd">
<svg version="1.1" id="Layer_1" xmlns="http://www.w3.org/2000/svg" xmlns:xlink="http://www.w3.org/1999/xlink" x="0px" y="0px"
	 width="57.25px" height="57.25px" viewBox="0 0 57.25 57.25" enable-background="new 0 0 57.25 57.25" xml:space="preserve">
<path fill="#FFFFFF" d="M28.625,0C12.816,0,0,12.815,0,28.625C0,44.434,12.816,57.25,28.625,57.25
	c15.81,0,28.625-12.815,28.625-28.625C57.25,12.815,44.434,0,28.625,0z M6.625,28.625c0-11.586,8.958-21.073,20.324-21.93v4.708
	c-4.962,1.018-8.136,4.587-8.136,9.221c0,5.521,4.473,8.036,9.299,9.929c4.034,1.635,5.679,3.316,5.679,5.805
	c0,2.723-2.367,4.625-5.756,4.625c-2.596,0-5.292-0.805-7.394-2.208l-0.698-0.465L18.2,43.176l0.403,0.288
	c1.905,1.361,4.976,2.304,7.969,2.469v4.594C15.385,49.49,6.625,40.083,6.625,28.625z M31.278,50.46v-4.775
	c5.116-1.063,8.513-4.903,8.513-9.704c0-4.834-2.62-7.964-8.757-10.466c-4.869-2.016-6.276-3.258-6.276-5.537
	c0-1.835,1.324-3.978,5.056-3.978c3.41,0,5.55,1.223,6.463,1.745l0.667,0.381l1.815-4.791l-0.477-0.28
	c-1.948-1.142-4.139-1.78-6.68-1.944V6.831c10.742,1.454,19.023,10.653,19.023,21.794C50.625,39.877,42.177,49.149,31.278,50.46z"/>
</svg>
