<?xml version="1.0" encoding="utf-8"?>
<!-- Generator: Adobe Illustrator 17.0.0, SVG Export Plug-In . SVG Version: 6.00 Build 0)  -->
<!DOCTYPE svg PUBLIC "-//W3C//DTD SVG 1.1//EN" "http://www.w3.org/Graphics/SVG/1.1/DTD/svg11.dtd">
<svg version="1.1" id="Layer_1" xmlns="http://www.w3.org/2000/svg" xmlns:xlink="http://www.w3.org/1999/xlink" x="0px" y="0px"
	 width="490.801px" height="491.001px" viewBox="0 0 490.801 491.001" enable-background="new 0 0 490.801 491.001"
	 xml:space="preserve">
<g>
	<g>
		<defs>
			<rect id="SVGID_1_" x="0.001" y="0.081" width="490.801" height="490.92"/>
		</defs>
		<clipPath id="SVGID_2_">
			<use xlink:href="#SVGID_1_"  overflow="visible"/>
		</clipPath>
		<path fill="#fff" clip-path="url(#SVGID_2_)" d="M324.481,245.841l156.32-156.4c13.121-13.121,13.121-34.48,0-47.761l-31.84-31.84
			C435.84-3.28,414.481-3.28,401.2,9.84L244.88,166.239L89.442,10.802c-13.121-13.121-34.48-13.121-47.761,0L9.84,42.642
			c-13.121,13.121-13.121,34.48,0,47.757l155.441,155.442L10.001,401.04c-13.121,13.121-13.121,34.481,0,47.762l31.84,31.841
			c13.121,13.12,34.48,13.12,47.762,0l155.277-155.2L400.481,481.04c13.121,13.121,34.48,13.121,47.758,0l31.84-31.84
			c13.121-13.121,13.121-34.48,0-47.758L324.481,245.841z M324.481,245.841"/>
	</g>
</g>
</svg>
