<?xml version="1.0" encoding="utf-8"?>
<!-- Generator: Adobe Illustrator 17.0.0, SVG Export Plug-In . SVG Version: 6.00 Build 0)  -->
<!DOCTYPE svg PUBLIC "-//W3C//DTD SVG 1.1//EN" "http://www.w3.org/Graphics/SVG/1.1/DTD/svg11.dtd">
<svg version="1.1" id="Layer_1" xmlns="http://www.w3.org/2000/svg" xmlns:xlink="http://www.w3.org/1999/xlink" x="0px" y="0px"
	 width="973.125px" height="973.078px" viewBox="0 0 973.125 973.078" enable-background="new 0 0 973.125 973.078"
	 xml:space="preserve">
<path d="M960,832L710.875,582.875C746.438,524.813,768,457.156,768,384C768,171.969,596,0,384,0C171.969,0,0,171.969,0,384
	c0,212,171.969,384,384,384c73.156,0,140.813-21.563,198.875-57L832,960c17.5,17.5,46.5,17.375,64,0l64-64
	C977.5,878.5,977.5,849.5,960,832z M384,640c-141.375,0-256-114.625-256-256s114.625-256,256-256s256,114.625,256,256
	S525.375,640,384,640z"/>
</svg>
