<?xml version="1.0" encoding="utf-8"?>
<!-- Generator: Adobe Illustrator 17.0.0, SVG Export Plug-In . SVG Version: 6.00 Build 0)  -->
<!DOCTYPE svg PUBLIC "-//W3C//DTD SVG 1.1//EN" "http://www.w3.org/Graphics/SVG/1.1/DTD/svg11.dtd">
<svg version="1.1" id="Layer_1" xmlns="http://www.w3.org/2000/svg" xmlns:xlink="http://www.w3.org/1999/xlink" x="0px" y="0px"
	 width="52.453px" height="42.198px" viewBox="0 0 52.453 42.198" enable-background="new 0 0 52.453 42.198" xml:space="preserve">
<path fill="#FFFFFF" d="M31.294,13.34c-0.053-0.344-0.165-0.626-0.351-0.809c-0.236-0.22-0.581-0.354-1.05-0.362l-3.497-0.197
	c-0.189-0.614-0.428-1.204-0.738-1.816c-0.052-0.099-0.101-0.197-0.15-0.295c-0.238-0.405-0.474-0.808-0.735-1.201l1.9-2.882
	c0.523-0.852,0.371-1.516-0.457-2.052l-4.154-2.705c-0.842-0.56-1.543-0.419-2.066,0.434l-1.85,2.856
	c-1.296-0.298-2.577-0.388-3.818-0.219l-1.635-3.214c-0.449-0.883-1.116-1.1-2-0.65L6.399,2.412
	c-0.883,0.449-1.101,1.116-0.65,1.999l1.646,3.238C6.858,8.23,6.382,8.875,5.968,9.579c-0.193,0.346-0.376,0.717-0.559,1.088
	l-3.583-0.184c-0.984-0.055-1.511,0.429-1.541,1.402l-0.285,4.964c-0.009,0.528,0.094,0.91,0.377,1.166
	c0.212,0.232,0.559,0.365,1.037,0.399L4.9,18.585c0.189,0.614,0.427,1.204,0.737,1.816c0.051,0.099,0.101,0.196,0.15,0.296
	c0.238,0.404,0.475,0.808,0.761,1.188l-1.888,2.906c-0.5,0.779-0.422,1.418,0.284,1.955c0.036,0.012,0.087,0.049,0.149,0.109
	l4.154,2.703c0.829,0.536,1.517,0.373,2.052-0.457l1.864-2.832c1.294,0.299,2.563,0.363,3.817,0.221l1.623,3.189
	c0.448,0.881,1.115,1.098,1.998,0.649l4.293-2.184c0.885-0.449,1.103-1.116,0.653-1.999l-1.647-3.238
	c0.536-0.581,1.011-1.226,1.438-1.905c0.183-0.371,0.364-0.741,0.546-1.112l3.584,0.185c0.984,0.055,1.499-0.393,1.579-1.39
	l0.26-4.951C31.319,13.574,31.318,13.451,31.294,13.34z M20.594,16.776c-0.446,1.37-1.287,2.387-2.563,3.033
	c-1.275,0.65-2.594,0.734-3.963,0.287c-1.369-0.445-2.36-1.299-3.01-2.576c-0.648-1.275-0.768-2.604-0.322-3.973
	c0.445-1.371,1.301-2.362,2.576-3.011s2.579-0.755,3.949-0.31c1.37,0.446,2.396,1.313,3.047,2.589
	C20.958,14.09,21.041,15.407,20.594,16.776z"/>
<path fill="#FFFFFF" d="M51.752,32.086l-2.396-1.214c0.126-1.042,0.089-2.055-0.146-3.018l2.387-1.55
	c0.655-0.426,0.771-0.967,0.345-1.624l-2.073-3.188c-0.425-0.655-0.966-0.771-1.621-0.345l-2.405,1.563
	c-0.502-0.373-1.049-0.693-1.635-0.959c-0.288-0.123-0.594-0.236-0.9-0.349l-0.152-2.829c-0.04-0.777-0.464-1.15-1.229-1.094
	l-3.92,0.19c-0.416,0.038-0.707,0.149-0.885,0.393c-0.165,0.185-0.24,0.468-0.228,0.847l0.154,2.751
	c-0.467,0.199-0.909,0.434-1.364,0.729c-0.073,0.049-0.146,0.095-0.221,0.143c-0.296,0.221-0.594,0.439-0.869,0.696l-2.438-1.24
	c-0.654-0.327-1.15-0.214-1.511,0.386c-0.007,0.029-0.03,0.07-0.074,0.126l-1.777,3.485c-0.352,0.695-0.165,1.223,0.529,1.573
	l2.378,1.229c-0.126,1.04-0.072,2.042,0.146,3.015l-2.37,1.539c-0.655,0.427-0.77,0.969-0.345,1.623l2.073,3.19
	c0.427,0.655,0.967,0.771,1.622,0.346l2.406-1.563c0.5,0.374,1.046,0.691,1.615,0.971c0.307,0.112,0.611,0.225,0.918,0.336
	l0.154,2.829c0.039,0.776,0.432,1.145,1.223,1.124l3.907-0.206c0.126-0.005,0.224-0.017,0.31-0.046
	c0.265-0.069,0.477-0.182,0.604-0.343c0.153-0.202,0.229-0.485,0.198-0.854l-0.137-2.761c0.467-0.2,0.908-0.437,1.365-0.731
	c0.073-0.048,0.146-0.095,0.219-0.143c0.297-0.22,0.594-0.44,0.882-0.678l2.419,1.253c0.715,0.339,1.222,0.165,1.574-0.529
	l1.778-3.486C52.632,32.966,52.464,32.426,51.752,32.086z M44.638,30.67c-0.236,1.112-0.83,1.992-1.779,2.607
	c-0.948,0.615-1.975,0.791-3.087,0.554c-1.111-0.236-1.979-0.812-2.593-1.761c-0.617-0.946-0.791-1.974-0.557-3.087
	c0.237-1.111,0.826-1.961,1.773-2.576c0.945-0.616,1.98-0.82,3.092-0.584c1.111,0.235,1.963,0.824,2.578,1.773
	C44.682,28.543,44.874,29.558,44.638,30.67z"/>
</svg>
