<?xml version="1.0" encoding="utf-8"?>
<!-- Generator: Adobe Illustrator 17.0.0, SVG Export Plug-In . SVG Version: 6.00 Build 0)  -->
<!DOCTYPE svg PUBLIC "-//W3C//DTD SVG 1.1//EN" "http://www.w3.org/Graphics/SVG/1.1/DTD/svg11.dtd">
<svg version="1.1" id="Слой_1" xmlns="http://www.w3.org/2000/svg" xmlns:xlink="http://www.w3.org/1999/xlink" x="0px" y="0px"
	 width="321.973px" height="388px" viewBox="0 0 321.973 388" enable-background="new 0 0 321.973 388" xml:space="preserve">
<g>
	<g>
		<defs>
			<rect id="SVGID_1_" x="0" width="321.84" height="388"/>
		</defs>
		<clipPath id="SVGID_2_">
			<use xlink:href="#SVGID_1_"  overflow="visible"/>
		</clipPath>
		<path clip-path="url(#SVGID_2_)" fill="#ffffff" d="M294.348,0H80.398c-15.23,0-27.625,12.398-27.625,27.625v17.64H27.625
			C12.395,45.265,0,57.664,0,72.89v286.829c0,15.226,12.395,27.625,27.625,27.625h213.957c15.23,0,27.625-12.399,27.625-27.625
			v-17.645h25.141c15.234,0,27.625-12.398,27.625-27.621V27.625C321.973,12.398,309.582,0,294.348,0L294.348,0z M247.109,359.719
			c0,3.043-2.484,5.527-5.527,5.527H27.625c-3.043,0-5.527-2.484-5.527-5.527V72.89c0-3.043,2.484-5.523,5.527-5.523h25.148v247.086
			c0,15.223,12.395,27.621,27.625,27.621h166.711V359.719z M299.875,314.453c0,3.043-2.477,5.523-5.527,5.523H80.398
			c-3.05,0-5.527-2.48-5.527-5.523V27.625c0-3.047,2.477-5.528,5.527-5.528h213.95c3.05,0,5.527,2.485,5.527,5.528V314.453z
			 M299.875,314.453"/>
	</g>
	<path fill="#ffffff" d="M268.402,68.629H106.344c-6.102,0-11.051,4.953-11.051,11.047c0,6.109,4.949,11.05,11.051,11.05h162.058
		c6.102,0,11.051-4.941,11.051-11.05C279.453,73.582,274.504,68.629,268.402,68.629L268.402,68.629z M268.402,68.629"/>
	<path fill="#ffffff" d="M268.402,121.222H106.344c-6.102,0-11.051,4.95-11.051,11.051c0,6.106,4.949,11.051,11.051,11.051h162.058
		c6.102,0,11.051-4.945,11.051-11.051C279.453,126.176,274.504,121.222,268.402,121.222L268.402,121.222z M268.402,121.222"/>
	<path fill="#ffffff" d="M268.402,173.816H106.344c-6.102,0-11.051,4.953-11.051,11.051c0,6.105,4.949,11.047,11.051,11.047h162.058
		c6.102,0,11.051-4.942,11.051-11.047C279.453,178.769,274.504,173.816,268.402,173.816L268.402,173.816z M268.402,173.816"/>
	<path fill="#ffffff" d="M268.402,226.41H106.344c-6.102,0-11.051,4.953-11.051,11.051c0,6.109,4.949,11.051,11.051,11.051h162.058
		c6.102,0,11.051-4.942,11.051-11.051C279.453,231.363,274.504,226.41,268.402,226.41L268.402,226.41z M268.402,226.41"/>
</g>
</svg>
