<?xml version="1.0" encoding="utf-8"?>
<!-- Generator: Adobe Illustrator 17.0.0, SVG Export Plug-In . SVG Version: 6.00 Build 0)  -->
<!DOCTYPE svg PUBLIC "-//W3C//DTD SVG 1.1//EN" "http://www.w3.org/Graphics/SVG/1.1/DTD/svg11.dtd">
<svg version="1.1" id="Layer_1" xmlns="http://www.w3.org/2000/svg" xmlns:xlink="http://www.w3.org/1999/xlink" x="0px" y="0px"
	 width="211.748px" height="215.439px" viewBox="0 0 211.748 215.439" enable-background="new 0 0 211.748 215.439"
	 xml:space="preserve">
<path fill="#FFFFFF" d="M199.939,93.891C194.961,81.499,163.3,9.795,94.189,0c0,0-5.573,2.043,1.604,15.023l-0.083-0.148
	c0,0-84.984,30.765-95.711,106.456c0,0,1.645,4.494,11.387,0.21l0.002,0.005c4.978,12.393,36.637,84.097,105.749,93.892
	c0,0,5.572-2.045-1.604-15.023c0,0,85.49-30.662,96.215-106.354c0,0-1.642-4.492-11.385-0.21L199.939,93.891z"/>
<path d="M157.239,100.158c-2.718-6.767-20.008-45.922-57.746-51.27c0,0-3.044,1.116,0.877,8.203l-0.047-0.081
	c0,0-46.406,16.8-52.264,58.133c0,0,0.898,2.454,6.218,0.114l0.001,0.003c2.719,6.767,20.006,45.921,57.746,51.271
	c0,0,3.043-1.117-0.876-8.204c0,0,46.684-16.743,52.539-58.075c0,0-0.896-2.454-6.216-0.116L157.239,100.158z"/>
</svg>
